<svg width="24" height="24" viewBox="0 0 24 24" fill="none" xmlns="http://www.w3.org/2000/svg">
<path d="M12.15 16.5V18.6" stroke="black" stroke-width="1.5" stroke-linecap="round" stroke-linejoin="round"/>
<path d="M7.14999 22H17.15V21C17.15 19.9 16.25 19 15.15 19H9.14999C8.04999 19 7.14999 19.9 7.14999 21V22V22Z" stroke="black" stroke-width="1.5" stroke-miterlimit="10"/>
<path d="M6.15 22H18.15M12 16C8.13 16 5 12.87 5 9V6C5 3.79 6.79 2 9 2H15C17.21 2 19 3.79 19 6V9C19 12.87 15.87 16 12 16Z" stroke="black" stroke-width="1.5" stroke-linecap="round" stroke-linejoin="round"/>
<path d="M5.47001 11.65C4.72001 11.41 4.06001 10.97 3.54001 10.45C2.64001 9.45 2.04001 8.25 2.04001 6.85C2.04001 5.45 3.14001 4.35 4.54001 4.35H5.19001C4.99001 4.81 4.89001 5.32 4.89001 5.85V8.85C4.89001 9.85 5.10001 10.79 5.47001 11.65V11.65ZM18.53 11.65C19.28 11.41 19.94 10.97 20.46 10.45C21.36 9.45 21.96 8.25 21.96 6.85C21.96 5.45 20.86 4.35 19.46 4.35H18.81C19.01 4.81 19.11 5.32 19.11 5.85V8.85C19.11 9.85 18.9 10.79 18.53 11.65V11.65Z" stroke="black" stroke-width="1.5" stroke-linecap="round" stroke-linejoin="round"/>
</svg>
